<svg width="124" height="34" viewBox="0 0 124 34" fill="none" xmlns="http://www.w3.org/2000/svg">
<path d="M14.7723 17.4833C14.7723 20.7788 12.7633 22.9758 9.76944 22.9758C6.77558 22.9758 4.76654 20.7788 4.76654 17.4441C4.76654 14.227 6.73618 12.0301 9.69065 11.9908H14.2602C14.536 11.9908 14.7723 12.2262 14.7723 12.5401V17.4833ZM8.43008 8.06762C3.62415 8.22455 0 11.8731 0 17.4048C0 23.1327 3.78172 26.9382 8.70583 26.9382C10.9118 26.9382 12.6057 26.2321 13.8663 25.0551C14.2208 24.702 14.7723 24.9374 14.7723 25.4082V29.7237C14.7723 30.0376 14.536 30.273 14.2602 30.273H1.49693C1.22118 30.273 0.945429 30.5083 0.945429 30.8222V33.49C0.945429 33.7646 1.22118 34 1.49693 34H18.8298C19.1449 34 19.3813 33.7646 19.3813 33.49V11.9908V8.42071C19.3813 8.2257 19.2232 8.06762 19.0282 8.06762H8.43008Z" fill="#7000FF"/>
<path d="M27.0223 16.0317C26.6284 16.0317 26.3132 15.6394 26.392 15.2471C26.9041 12.9716 28.2829 11.677 30.4889 11.677C32.7343 11.677 34.113 12.9716 34.6251 15.2471C34.7039 15.6394 34.3888 16.0317 33.9948 16.0317H27.0223ZM39.5886 17.2087C39.5886 11.7162 35.9251 8.06762 30.4889 8.06762C25.0133 8.06762 21.3891 11.8731 21.3891 17.601C21.3891 23.2112 25.092 26.9382 30.6858 26.9382C30.6858 26.9382 37.225 27.1344 38.9977 21.995C39.1553 21.6027 38.8402 21.1711 38.4068 21.1711H35.0978C33.9948 22.4658 32.4979 23.3289 30.607 23.3289C28.2435 23.3289 26.9041 22.0342 26.392 19.9157C26.3132 19.5234 26.6284 19.1311 27.0223 19.1311H38.8795C39.1947 19.1311 39.5098 18.8957 39.5098 18.5426C39.5492 18.111 39.5886 17.6402 39.5886 17.2087Z" fill="#7000FF"/>
<path d="M52.0248 8.06762H42.2159C41.8614 8.06762 41.5857 8.34224 41.5857 8.69533V25.9574C41.5857 26.3105 41.8614 26.5851 42.2159 26.5851H45.5249C45.8795 26.5851 46.1552 26.3105 46.1552 25.9574V13.207C46.1552 12.5401 46.7067 11.9908 47.3764 11.9908H50.4491C53.0096 11.9908 54.7035 13.5209 54.7035 15.914V25.9574C54.7035 26.3105 55.0186 26.5851 55.3732 26.5851H58.6822C59.0367 26.5851 59.3125 26.3105 59.3125 25.9574V15.1686C59.3125 10.8923 56.3974 8.06762 52.0248 8.06762Z" fill="#7000FF"/>
<path d="M62.6993 8.42071C62.3054 8.42071 61.9902 8.73456 61.9902 9.12688V25.879C61.9902 26.2713 62.3054 26.5851 62.6993 26.5851H65.8507C66.2447 26.5851 66.5992 26.2713 66.5992 25.879V9.12688C66.5992 8.73456 66.2447 8.42071 65.8507 8.42071H62.6993ZM61.5569 3.20285C61.7145 4.34057 62.6599 5.24291 63.8023 5.39984C65.8114 5.67446 67.2295 4.26211 66.9537 2.26128C66.7962 1.12355 65.8901 0.181977 64.7477 0.025049C62.7387 -0.210343 61.3206 1.24124 61.5569 3.20285Z" fill="#7000FF"/>
<path d="M74.84 16.0317C74.4461 16.0317 74.1309 15.6394 74.2097 15.2471C74.7218 12.9716 76.1006 11.677 78.3066 11.677C80.552 11.677 81.9307 12.9716 82.4428 15.2471C82.5216 15.6394 82.2065 16.0317 81.8126 16.0317H74.84ZM87.4063 17.2087C87.4063 11.7162 83.7428 8.06762 78.3066 8.06762C72.831 8.06762 69.2068 11.8731 69.2068 17.601C69.2068 23.2112 72.9098 26.9382 78.5036 26.9382C78.5036 26.9382 85.0428 27.1344 86.8155 21.995C86.973 21.6027 86.6579 21.1711 86.2246 21.1711H82.9156C81.8126 22.4658 80.3156 23.3289 78.4248 23.3289C76.0612 23.3289 74.7218 22.0342 74.2097 19.9157C74.1309 19.5234 74.4461 19.1311 74.84 19.1311H86.6973C87.0124 19.1311 87.3276 18.8957 87.3276 18.5426C87.367 18.111 87.4063 17.6402 87.4063 17.2087Z" fill="#7000FF"/>
<path d="M92.2309 24.8119C92.2309 24.3266 92.295 23.9179 92.4232 23.5859C92.5515 23.2411 92.7246 22.9665 92.9426 22.7622C93.1606 22.5451 93.417 22.3918 93.712 22.3024C94.0069 22.2002 94.3275 22.1492 94.6737 22.1492C95.0071 22.1492 95.3213 22.2002 95.6162 22.3024C95.924 22.3918 96.1869 22.5451 96.4049 22.7622C96.6228 22.9665 96.796 23.2411 96.9242 23.5859C97.0524 23.9179 97.1165 24.3266 97.1165 24.8119C97.1165 25.2844 97.0524 25.6931 96.9242 26.0379C96.796 26.3699 96.6228 26.6445 96.4049 26.8616C96.1869 27.0787 95.924 27.2383 95.6162 27.3405C95.3213 27.4427 95.0071 27.4938 94.6737 27.4938C94.3275 27.4938 94.0069 27.4427 93.712 27.3405C93.417 27.2383 93.1606 27.0787 92.9426 26.8616C92.7246 26.6445 92.5515 26.3699 92.4232 26.0379C92.295 25.6931 92.2309 25.2844 92.2309 24.8119Z" fill="#7000FF"/>
<path d="M111.722 19.3664C111.564 22.1127 109.634 23.6427 107.585 23.6427C105.734 23.6427 104.749 22.7012 104.749 21.2104C104.749 19.6411 106.167 18.621 108.294 18.621C109.24 18.621 110.343 18.7387 111.406 18.9349C111.603 18.9741 111.761 19.1703 111.722 19.3664ZM116.37 8.81303C116.37 8.57764 116.173 8.42071 115.976 8.42071H101.519C101.282 8.42071 101.125 8.57764 101.125 8.81303V11.6377C101.125 11.8339 101.282 12.0301 101.519 12.0301H111.367C111.564 12.0301 111.761 12.187 111.761 12.4224V15.4432C111.761 15.6786 111.525 15.8748 111.288 15.7963C110.067 15.6002 108.846 15.4825 107.704 15.4825C103.055 15.4825 99.9825 17.7972 99.9825 21.2888C99.9825 24.6628 102.504 26.9382 106.246 26.9382C108.137 26.9382 109.949 26.1928 111.17 24.8197C111.406 24.5843 111.84 24.7412 111.879 25.0943L111.919 26.2321C111.919 26.4282 112.076 26.5851 112.312 26.5851H115.976C116.173 26.5851 116.37 26.4282 116.37 26.1928V8.81303Z" fill="#7000FF"/>
<path d="M119.711 8.42071C119.317 8.42071 119.002 8.73456 119.002 9.12688V25.879C119.002 26.2713 119.317 26.5851 119.711 26.5851H122.863C123.257 26.5851 123.611 26.2713 123.611 25.879V9.12688C123.611 8.73456 123.257 8.42071 122.863 8.42071H119.711ZM118.569 3.20285C118.726 4.34057 119.672 5.24291 120.814 5.39984C122.823 5.67446 124.241 4.26211 123.966 2.26128C123.808 1.12355 122.902 0.181977 121.76 0.025049C119.751 -0.210343 118.333 1.24124 118.569 3.20285Z" fill="#7000FF"/>
</svg>
