<svg width="371" height="240" viewBox="0 0 371 240" fill="none" xmlns="http://www.w3.org/2000/svg">
<path d="M136.524 58.3147C143.374 62.4449 145.944 71.0876 142.464 78.2894L139.852 83.6957C138.083 87.3587 137.824 91.5633 139.131 95.4066L141.061 101.079C143.632 108.635 140.019 116.916 132.712 120.216L127.227 122.694C123.511 124.373 120.599 127.435 119.119 131.223L116.934 136.813C114.023 144.26 105.918 148.303 98.2028 146.158L92.4109 144.548C88.4867 143.457 84.2856 143.944 80.7098 145.904L75.4321 148.796C68.4016 152.649 59.597 150.563 55.0832 143.977L51.6947 139.032C49.3989 135.682 45.8735 133.365 41.8756 132.58L35.9749 131.421C28.1145 129.877 22.7296 122.639 23.5295 114.692L24.13 108.727C24.5369 104.685 23.3368 100.649 20.7874 97.4865L17.0247 92.8185C12.0123 86.6003 12.5668 77.5956 18.3062 72.0073L22.6147 67.8123C25.5338 64.97 27.2205 61.1036 27.3126 57.0433L27.4484 51.0506C27.6294 43.0675 33.8639 36.51 41.8572 35.895L47.8577 35.4333C51.9232 35.1205 55.7075 33.2324 58.3979 30.1744L62.3688 25.661C67.6585 19.6485 76.6557 18.6064 83.1628 23.2525L88.0476 26.7402C91.3572 29.1033 95.4684 30.0769 99.4983 29.452L105.446 28.5298C113.369 27.3012 120.919 32.2622 122.896 39.9953L124.379 45.8005C125.384 49.7337 127.899 53.1136 131.382 55.2142L136.524 58.3147Z" fill="#FF747C"/>
<path d="M51.59 87.6059L50.638 89.9999H49L53.158 79.7939H55.048L59.178 89.9999H57.512L56.574 87.6059H51.59ZM52.15 86.1779H56.028L54.082 81.3339L52.15 86.1779Z" fill="white"/>
<path d="M59.7625 86.5139C59.7625 85.5993 60.0658 84.7779 60.6725 84.0499C61.3258 83.2846 62.1798 82.9019 63.2345 82.9019C63.6078 82.9019 64.0138 82.9999 64.4525 83.1959C64.9098 83.3826 65.2552 83.6626 65.4885 84.0359V79.3879H67.0425V89.9999H65.5165V88.9079C65.3485 89.1879 65.1105 89.4259 64.8025 89.6219C64.4852 89.7993 64.1912 89.9253 63.9205 89.9999C63.6405 90.0746 63.3978 90.1119 63.1925 90.1119C62.5485 90.1119 61.9605 89.9393 61.4285 89.5939C60.9058 89.2673 60.4952 88.8239 60.1965 88.2639C59.9072 87.7039 59.7625 87.1206 59.7625 86.5139ZM65.5025 86.5139C65.5025 85.8886 65.3112 85.3659 64.9285 84.9459C64.5365 84.5259 64.0325 84.3159 63.4165 84.3159C62.8098 84.3159 62.3105 84.5259 61.9185 84.9459C61.5265 85.3846 61.3305 85.9073 61.3305 86.5139C61.3305 87.1206 61.5265 87.6386 61.9185 88.0679C62.3105 88.4879 62.8098 88.6979 63.4165 88.6979C64.0325 88.6979 64.5365 88.4879 64.9285 88.0679C65.3112 87.6479 65.5025 87.1299 65.5025 86.5139Z" fill="white"/>
<path d="M77.5549 90.1259C76.7802 90.1353 76.0289 89.9673 75.3009 89.6219C74.5822 89.2766 73.9802 88.7959 73.4949 88.1799C72.7855 87.3026 72.4309 86.2199 72.4309 84.9319C72.4309 84.1853 72.5709 83.4759 72.8509 82.8039C73.1309 82.1506 73.5089 81.5906 73.9849 81.1239C74.4702 80.6666 75.0255 80.3073 75.6509 80.0459C76.2949 79.7753 76.9529 79.6399 77.6249 79.6399C78.6982 79.6399 79.6362 79.8966 80.4389 80.4099C80.8122 80.6713 81.1202 80.9373 81.3629 81.2079C81.8482 81.7586 82.1749 82.3513 82.3429 82.9859L80.7609 83.5319C80.6769 83.1586 80.5089 82.7899 80.2569 82.4259C80.0795 82.1739 79.8835 81.9686 79.6689 81.8099C79.1462 81.3713 78.4602 81.1519 77.6109 81.1519C76.6962 81.1519 75.8889 81.4879 75.1889 82.1599C74.4702 82.8599 74.1109 83.7653 74.1109 84.8759C74.1109 86.0053 74.4655 86.9153 75.1749 87.6059C75.8655 88.2779 76.6729 88.6139 77.5969 88.6139C78.3715 88.6139 79.0295 88.4039 79.5709 87.9839C79.8229 87.7786 80.0282 87.5733 80.1869 87.3679C80.4762 86.9853 80.6769 86.5933 80.7889 86.1919L82.3709 86.7379C82.1375 87.5779 81.6709 88.2966 80.9709 88.8939C80.3642 89.4073 79.6875 89.7619 78.9409 89.9579C78.4929 90.0699 78.0309 90.1259 77.5549 90.1259Z" fill="white"/>
<path d="M83.493 86.5139C83.493 85.8419 83.661 85.2259 83.997 84.6659C84.3517 84.0873 84.7997 83.6533 85.341 83.3639C85.9011 83.0559 86.517 82.9019 87.189 82.9019C87.8424 82.9019 88.449 83.0559 89.009 83.3639C89.569 83.6719 90.0171 84.1013 90.3531 84.6519C90.6797 85.2213 90.843 85.8326 90.843 86.4859C90.8617 87.4846 90.5024 88.3479 89.765 89.0759C89.037 89.7946 88.1737 90.1446 87.175 90.1259C86.531 90.1259 85.9197 89.9673 85.341 89.6499C84.7997 89.3606 84.3517 88.9266 83.997 88.3479C83.661 87.7879 83.493 87.1766 83.493 86.5139ZM85.0891 86.4859C85.0891 87.0926 85.285 87.6153 85.677 88.0539C86.069 88.4926 86.573 88.7119 87.189 88.7119C87.7957 88.7119 88.2951 88.4973 88.687 88.0679C89.0697 87.6386 89.261 87.1206 89.261 86.5139C89.261 85.8886 89.065 85.3659 88.673 84.9459C88.2997 84.5166 87.8004 84.3019 87.175 84.3019C86.559 84.3019 86.055 84.5119 85.663 84.9319C85.2804 85.3426 85.0891 85.8606 85.0891 86.4859Z" fill="white"/>
<path d="M99.8516 86.4999C99.8516 87.1346 99.7116 87.7226 99.4316 88.2639C99.1329 88.8239 98.7223 89.2673 98.1996 89.5939C97.6396 89.9393 97.0376 90.1119 96.3936 90.1119C95.9083 90.1119 95.3949 89.9579 94.8536 89.6499C94.5456 89.4726 94.3076 89.2486 94.1396 88.9779V93.4299H92.5856V83.0419H94.0976V84.1199C94.3776 83.6626 94.7649 83.3406 95.2596 83.1539C95.6889 82.9859 96.0809 82.9019 96.4356 82.9019C97.4716 82.9019 98.3116 83.2846 98.9556 84.0499C99.5529 84.7779 99.8516 85.5946 99.8516 86.4999ZM94.6996 84.9459C94.3076 85.3846 94.1116 85.9073 94.1116 86.5139C94.1116 87.1206 94.3076 87.6386 94.6996 88.0679C95.0916 88.4879 95.5909 88.6979 96.1976 88.6979C96.8136 88.6979 97.3176 88.4879 97.7096 88.0679C98.0923 87.6479 98.2836 87.1299 98.2836 86.5139C98.2836 85.8886 98.0923 85.3659 97.7096 84.9459C97.3176 84.5259 96.8136 84.3159 96.1976 84.3159C95.5909 84.3159 95.0916 84.5259 94.6996 84.9459Z" fill="white"/>
<path d="M103.156 89.2159L100.062 83.0419H101.826L103.996 87.6059L105.998 83.0419H107.678L102.904 93.4299H101.252L103.156 89.2159Z" fill="white"/>
<path d="M247.492 -60.3886C257.141 -69.2038 271.859 -69.2038 281.508 -60.3885L288.752 -53.7711C293.659 -49.2875 300.117 -46.9206 306.739 -47.1787L316.512 -47.5596C329.53 -48.0671 340.805 -38.5405 342.57 -25.5422L343.894 -15.7846C344.792 -9.17346 348.228 -3.18029 353.465 0.907867L361.195 6.94171C371.491 14.9795 374.047 29.575 367.101 40.6743L361.887 49.0064C358.355 54.6517 357.161 61.4669 358.563 67.9884L360.633 77.6137C363.39 90.4358 356.031 103.271 343.625 107.278L334.312 110.286C328.002 112.323 322.738 116.772 319.649 122.675L315.09 131.388C309.017 142.995 295.186 148.064 283.125 143.103L274.071 139.38C267.936 136.857 261.064 136.857 254.929 139.38L245.875 143.103C233.814 148.064 219.983 142.995 213.91 131.388L209.352 122.675C206.263 116.772 200.998 112.323 194.688 110.286L185.375 107.278C172.969 103.271 165.61 90.4358 168.367 77.6137L170.437 67.9884C171.839 61.4669 170.646 54.6517 167.113 49.0064L161.899 40.6743C154.953 29.575 157.509 14.9795 167.806 6.94171L175.535 0.90786C180.773 -3.1803 184.209 -9.17345 185.106 -15.7846L186.431 -25.5422C188.195 -38.5405 199.47 -48.0671 212.489 -47.5596L222.262 -47.1787C228.883 -46.9206 235.341 -49.2875 240.249 -53.7711L247.492 -60.3886Z" fill="#70FF98"/>
<path d="M227.721 55.1119C226.564 55.1119 225.654 54.7946 224.991 54.1599C224.366 53.5719 224.016 52.8953 223.941 52.1299L225.495 51.7099C225.607 52.3166 225.859 52.7926 226.251 53.1379C226.652 53.4926 227.152 53.6699 227.749 53.6699C228.253 53.6699 228.692 53.5346 229.065 53.2639C229.42 52.9933 229.597 52.6526 229.597 52.2419C229.597 51.8499 229.462 51.5279 229.191 51.2759C228.92 51.0239 228.552 50.8466 228.085 50.7439L226.825 50.4919C226.013 50.3239 225.383 49.9879 224.935 49.4839C224.478 48.9893 224.249 48.4013 224.249 47.7199C224.23 46.8986 224.562 46.1753 225.243 45.5499C225.924 44.9246 226.713 44.6213 227.609 44.6399C228.897 44.6493 229.84 45.0366 230.437 45.8019C230.773 46.1939 230.992 46.6466 231.095 47.1599L229.597 47.6219C229.494 47.2206 229.27 46.8659 228.925 46.5579C228.58 46.2499 228.155 46.0959 227.651 46.0959C227.147 46.0959 226.732 46.2406 226.405 46.5299C226.06 46.8193 225.887 47.1646 225.887 47.5659C225.887 47.8739 226.004 48.1586 226.237 48.4199C226.48 48.6719 226.792 48.8399 227.175 48.9239L228.463 49.1759C229.359 49.3533 230.045 49.6986 230.521 50.2119C231.006 50.7253 231.249 51.3646 231.249 52.1299C231.249 52.9046 230.946 53.5859 230.339 54.1739C229.686 54.7993 228.813 55.1119 227.721 55.1119Z" fill="white"/>
<path d="M232.585 51.5139C232.585 50.8419 232.753 50.2259 233.089 49.6659C233.444 49.0873 233.892 48.6533 234.433 48.3639C234.993 48.0559 235.609 47.9019 236.281 47.9019C236.935 47.9019 237.541 48.0559 238.101 48.3639C238.661 48.6719 239.109 49.1013 239.445 49.6519C239.772 50.2213 239.935 50.8326 239.935 51.4859C239.954 52.4846 239.595 53.3479 238.857 54.0759C238.129 54.7946 237.266 55.1446 236.267 55.1259C235.623 55.1259 235.012 54.9673 234.433 54.6499C233.892 54.3606 233.444 53.9266 233.089 53.3479C232.753 52.7879 232.585 52.1766 232.585 51.5139ZM234.181 51.4859C234.181 52.0926 234.377 52.6153 234.769 53.0539C235.161 53.4926 235.665 53.7119 236.281 53.7119C236.888 53.7119 237.387 53.4973 237.779 53.0679C238.162 52.6386 238.353 52.1206 238.353 51.5139C238.353 50.8886 238.157 50.3659 237.765 49.9459C237.392 49.5166 236.893 49.3019 236.267 49.3019C235.651 49.3019 235.147 49.5119 234.755 49.9319C234.373 50.3426 234.181 50.8606 234.181 51.4859Z" fill="white"/>
<path d="M244.842 55.1259C243.834 55.1446 242.971 54.7993 242.252 54.0899C241.543 53.3713 241.197 52.5079 241.216 51.4999C241.216 50.8466 241.375 50.2446 241.692 49.6939C242 49.1433 242.439 48.7046 243.008 48.3779C243.559 48.0606 244.175 47.9019 244.856 47.9019C245.687 47.9019 246.391 48.1213 246.97 48.5599C247.549 48.9893 247.917 49.5166 248.076 50.1419L246.676 50.6039C246.592 50.3053 246.415 50.0206 246.144 49.7499C245.827 49.4513 245.397 49.3019 244.856 49.3019C244.287 49.3019 243.801 49.5026 243.4 49.9039C243.008 50.3146 242.812 50.8419 242.812 51.4859C242.812 52.1206 243.003 52.6526 243.386 53.0819C243.778 53.5019 244.273 53.7119 244.87 53.7119C245.757 53.7119 246.368 53.2686 246.704 52.3819L248.118 52.8439C247.959 53.4133 247.614 53.9219 247.082 54.3699C246.503 54.8739 245.757 55.1259 244.842 55.1259Z" fill="white"/>
<path d="M250.531 46.8099C250.261 46.8099 250.023 46.7073 249.817 46.5019C249.612 46.2966 249.509 46.0586 249.509 45.7879C249.509 45.5079 249.612 45.2653 249.817 45.0599C250.013 44.8546 250.251 44.7519 250.531 44.7519C250.821 44.7519 251.063 44.8546 251.259 45.0599C251.455 45.2559 251.553 45.4986 251.553 45.7879C251.553 46.0679 251.455 46.3059 251.259 46.5019C251.054 46.7073 250.811 46.8099 250.531 46.8099ZM249.761 54.9999V48.0419H251.315V54.9999H249.761Z" fill="white"/>
<path d="M259.068 54.9999H257.556C257.51 54.7853 257.486 54.4679 257.486 54.0479C257.253 54.4306 256.954 54.7059 256.59 54.8739C256.217 55.0419 255.834 55.1259 255.442 55.1259C254.761 55.1259 254.201 54.9299 253.762 54.5379C253.324 54.1553 253.104 53.6653 253.104 53.0679V52.9979C253.114 52.1113 253.562 51.4953 254.448 51.1499C254.924 50.9633 255.438 50.8699 255.988 50.8699H256.856C257.286 50.8699 257.5 50.6739 257.5 50.2819C257.5 49.9833 257.384 49.7313 257.15 49.5259C256.898 49.3206 256.558 49.2179 256.128 49.2179C255.718 49.2179 255.377 49.3253 255.106 49.5399C254.836 49.7453 254.672 50.0253 254.616 50.3799L253.202 50.0579C253.249 49.7313 253.408 49.3813 253.678 49.0079C253.968 48.6346 254.332 48.3546 254.77 48.1679C255.153 47.9906 255.624 47.9019 256.184 47.9019C257.491 47.9019 258.359 48.3779 258.788 49.3299C258.947 49.6753 259.026 50.0859 259.026 50.5619V53.8799C259.026 54.3466 259.04 54.7199 259.068 54.9999ZM257.486 52.1859V51.9619H255.988C255.662 51.9619 255.358 52.0459 255.078 52.2139C254.798 52.3913 254.658 52.6293 254.658 52.9279C254.658 53.2173 254.761 53.4506 254.966 53.6279C255.172 53.7959 255.438 53.8799 255.764 53.8799C256.296 53.8799 256.716 53.7259 257.024 53.4179C257.332 53.1099 257.486 52.6993 257.486 52.1859Z" fill="white"/>
<path d="M262.71 44.3879V54.9999H261.156V44.3879H262.71Z" fill="white"/>
<path d="M279.733 54.9999H278.137V47.3559H278.109L274.917 54.9999H273.559L270.381 47.3839H270.339V54.9999H268.771V44.7939H270.941L274.245 52.6899H274.259L277.507 44.7939H279.733V54.9999Z" fill="white"/>
<path d="M288.619 51.9759H283.327C283.337 52.4799 283.551 52.9139 283.971 53.2779C284.391 53.6326 284.858 53.8053 285.371 53.7959C286.342 53.7959 286.958 53.4039 287.219 52.6199L288.521 53.0259C288.4 53.4459 288.176 53.8193 287.849 54.1459C287.532 54.4726 287.159 54.7199 286.729 54.8879C286.281 55.0466 285.833 55.1259 285.385 55.1259C284.377 55.1446 283.514 54.7993 282.795 54.0899C282.077 53.3806 281.727 52.5219 281.745 51.5139C281.745 50.8606 281.895 50.2586 282.193 49.7079C282.501 49.1386 282.921 48.6999 283.453 48.3919C283.995 48.0653 284.592 47.9019 285.245 47.9019C286.309 47.9019 287.14 48.2333 287.737 48.8959C288.344 49.5586 288.647 50.4266 288.647 51.4999C288.647 51.6306 288.638 51.7893 288.619 51.9759ZM285.259 49.2319C284.765 49.2319 284.354 49.3766 284.027 49.6659C283.682 49.9459 283.477 50.3239 283.411 50.7999H287.065C287.037 50.3333 286.855 49.9506 286.519 49.6519C286.165 49.3719 285.745 49.2319 285.259 49.2319Z" fill="white"/>
<path d="M289.897 51.5139C289.897 50.5993 290.2 49.7779 290.807 49.0499C291.46 48.2846 292.314 47.9019 293.369 47.9019C293.742 47.9019 294.148 47.9999 294.587 48.1959C295.044 48.3826 295.389 48.6626 295.623 49.0359V44.3879H297.177V54.9999H295.651V53.9079C295.483 54.1879 295.245 54.4259 294.937 54.6219C294.619 54.7993 294.325 54.9253 294.055 54.9999C293.775 55.0746 293.532 55.1119 293.327 55.1119C292.683 55.1119 292.095 54.9393 291.563 54.5939C291.04 54.2673 290.629 53.8239 290.331 53.2639C290.041 52.7039 289.897 52.1206 289.897 51.5139ZM295.637 51.5139C295.637 50.8886 295.445 50.3659 295.063 49.9459C294.671 49.5259 294.167 49.3159 293.551 49.3159C292.944 49.3159 292.445 49.5259 292.053 49.9459C291.661 50.3846 291.465 50.9073 291.465 51.5139C291.465 52.1206 291.661 52.6386 292.053 53.0679C292.445 53.4879 292.944 53.6979 293.551 53.6979C294.167 53.6979 294.671 53.4879 295.063 53.0679C295.445 52.6479 295.637 52.1299 295.637 51.5139Z" fill="white"/>
<path d="M300.156 46.8099C299.885 46.8099 299.647 46.7073 299.442 46.5019C299.236 46.2966 299.134 46.0586 299.134 45.7879C299.134 45.5079 299.236 45.2653 299.442 45.0599C299.638 44.8546 299.876 44.7519 300.156 44.7519C300.445 44.7519 300.688 44.8546 300.884 45.0599C301.08 45.2559 301.178 45.4986 301.178 45.7879C301.178 46.0679 301.08 46.3059 300.884 46.5019C300.678 46.7073 300.436 46.8099 300.156 46.8099ZM299.386 54.9999V48.0419H300.94V54.9999H299.386Z" fill="white"/>
<path d="M308.693 54.9999H307.181C307.134 54.7853 307.111 54.4679 307.111 54.0479C306.877 54.4306 306.579 54.7059 306.215 54.8739C305.841 55.0419 305.459 55.1259 305.067 55.1259C304.385 55.1259 303.825 54.9299 303.387 54.5379C302.948 54.1553 302.729 53.6653 302.729 53.0679V52.9979C302.738 52.1113 303.186 51.4953 304.073 51.1499C304.549 50.9633 305.062 50.8699 305.613 50.8699H306.481C306.91 50.8699 307.125 50.6739 307.125 50.2819C307.125 49.9833 307.008 49.7313 306.775 49.5259C306.523 49.3206 306.182 49.2179 305.753 49.2179C305.342 49.2179 305.001 49.3253 304.731 49.5399C304.46 49.7453 304.297 50.0253 304.241 50.3799L302.827 50.0579C302.873 49.7313 303.032 49.3813 303.303 49.0079C303.592 48.6346 303.956 48.3546 304.395 48.1679C304.777 47.9906 305.249 47.9019 305.809 47.9019C307.115 47.9019 307.983 48.3779 308.413 49.3299C308.571 49.6753 308.651 50.0859 308.651 50.5619V53.8799C308.651 54.3466 308.665 54.7199 308.693 54.9999ZM307.111 52.1859V51.9619H305.613C305.286 51.9619 304.983 52.0459 304.703 52.2139C304.423 52.3913 304.283 52.6293 304.283 52.9279C304.283 53.2173 304.385 53.4506 304.591 53.6279C304.796 53.7959 305.062 53.8799 305.389 53.8799C305.921 53.8799 306.341 53.7259 306.649 53.4179C306.957 53.1099 307.111 52.6993 307.111 52.1859Z" fill="white"/>
<path d="M260.487 63.9719C260.487 64.8773 260.17 65.6379 259.535 66.2539C258.872 66.8979 257.934 67.2199 256.721 67.2199H254.901V70.9999H253.305V60.7939H256.917C258.354 60.7939 259.372 61.2513 259.969 62.1659C260.314 62.6979 260.487 63.2999 260.487 63.9719ZM258.863 63.9999C258.863 63.5333 258.704 63.1319 258.387 62.7959C258.07 62.4506 257.533 62.2779 256.777 62.2779H254.901V65.7499H256.777C257.524 65.7499 258.065 65.5586 258.401 65.1759C258.709 64.8213 258.863 64.4293 258.863 63.9999Z" fill="white"/>
<path d="M261.015 67.5139C261.015 66.8419 261.183 66.2259 261.519 65.6659C261.874 65.0873 262.322 64.6533 262.863 64.3639C263.423 64.0559 264.039 63.9019 264.711 63.9019C265.365 63.9019 265.971 64.0559 266.531 64.3639C267.091 64.6719 267.539 65.1013 267.875 65.6519C268.202 66.2213 268.365 66.8326 268.365 67.4859C268.384 68.4846 268.025 69.3479 267.287 70.0759C266.559 70.7946 265.696 71.1446 264.697 71.1259C264.053 71.1259 263.442 70.9673 262.863 70.6499C262.322 70.3606 261.874 69.9266 261.519 69.3479C261.183 68.7879 261.015 68.1766 261.015 67.5139ZM262.611 67.4859C262.611 68.0926 262.807 68.6153 263.199 69.0539C263.591 69.4926 264.095 69.7119 264.711 69.7119C265.318 69.7119 265.817 69.4973 266.209 69.0679C266.592 68.6386 266.783 68.1206 266.783 67.5139C266.783 66.8886 266.587 66.3659 266.195 65.9459C265.822 65.5166 265.323 65.3019 264.697 65.3019C264.081 65.3019 263.577 65.5119 263.185 65.9319C262.803 66.3426 262.611 66.8606 262.611 67.4859Z" fill="white"/>
<path d="M272.376 71.1259C271.34 71.1166 270.579 70.7899 270.094 70.1459C269.814 69.7819 269.66 69.4319 269.632 69.0959L270.962 68.7459C271.037 69.0819 271.195 69.3526 271.438 69.5579C271.681 69.7539 271.989 69.8519 272.362 69.8519C272.67 69.8519 272.908 69.7819 273.076 69.6419C273.253 69.4926 273.342 69.2919 273.342 69.0399C273.342 68.6573 273.067 68.4006 272.516 68.2699L271.634 68.0599C271.037 67.9199 270.579 67.6773 270.262 67.3319C269.945 66.9773 269.786 66.5573 269.786 66.0719C269.786 65.4746 270.024 64.9613 270.5 64.5319C270.976 64.1026 271.559 63.8879 272.25 63.8879C273.23 63.8973 273.944 64.2053 274.392 64.8119C274.625 65.1199 274.765 65.4326 274.812 65.7499L273.51 66.1139C273.445 65.8246 273.305 65.5913 273.09 65.4139C272.885 65.2366 272.605 65.1479 272.25 65.1479C271.989 65.1479 271.765 65.2226 271.578 65.3719C271.391 65.5026 271.298 65.6893 271.298 65.9319C271.298 66.3239 271.531 66.5666 271.998 66.6599L272.95 66.8559C273.575 66.9959 274.061 67.2526 274.406 67.6259C274.751 68.0179 274.924 68.4613 274.924 68.9559C274.924 69.5439 274.7 70.0526 274.252 70.4819C273.813 70.9113 273.188 71.1259 272.376 71.1259Z" fill="white"/>
<path d="M280.416 64.0419V65.4419H278.652V68.7599C278.652 69.0679 278.736 69.2966 278.904 69.4459C279.072 69.5859 279.343 69.6559 279.716 69.6559C279.903 69.6559 280.113 69.6373 280.346 69.5999V70.9299C280.001 71.0233 279.632 71.0699 279.24 71.0699C278.522 71.0699 277.985 70.9019 277.63 70.5659C277.276 70.2299 277.098 69.6559 277.098 68.8439V65.4419H275.754V64.0419H277.098V61.8859H278.652V64.0419H280.416Z" fill="white"/>
<path d="M176.516 145.853C184.875 140.373 195.995 142.16 202.217 149.982L206.888 155.854C210.052 159.833 214.645 162.402 219.679 163.012L227.109 163.911C237.007 165.108 244.371 173.665 244.129 183.686L243.947 191.208C243.823 196.305 245.693 201.244 249.154 204.964L254.263 210.455C261.069 217.769 261.231 229.092 254.637 236.622L249.687 242.276C246.334 246.106 244.606 251.103 244.875 256.194L245.272 263.707C245.801 273.716 238.684 282.506 228.825 284.023L221.424 285.162C216.409 285.933 211.892 288.65 208.843 292.729L204.342 298.749C198.347 306.769 187.282 308.915 178.77 303.708L172.381 299.799C168.052 297.151 162.859 296.316 157.918 297.475L150.626 299.186C140.911 301.464 131.076 295.961 127.894 286.466L125.506 279.339C123.888 274.51 120.449 270.515 115.929 268.211L109.257 264.811C100.369 260.282 96.3647 249.705 100.002 240.366L102.733 233.355C104.583 228.605 104.507 223.318 102.522 218.63L99.5928 211.711C95.6903 202.493 99.3907 191.792 108.145 186.978L114.717 183.364C119.169 180.915 122.492 176.81 123.972 171.931L126.155 164.73C129.064 155.138 138.738 149.319 148.513 151.282L155.851 152.756C160.823 153.755 165.989 152.753 170.24 149.966L176.516 145.853Z" fill="#FFC03A"/>
<path d="M150.316 201.794H154.222C155.211 201.794 156.005 202.032 156.602 202.508C157.199 202.993 157.498 203.651 157.498 204.482C157.498 204.827 157.405 205.191 157.218 205.574C157.003 206.05 156.607 206.419 156.028 206.68C156.756 206.913 157.274 207.287 157.582 207.8C157.834 208.248 157.96 208.696 157.96 209.144C157.96 209.993 157.652 210.684 157.036 211.216C156.411 211.739 155.51 212 154.334 212H150.316V201.794ZM151.898 206.12H153.914C154.586 206.12 155.081 205.98 155.398 205.7C155.734 205.42 155.902 205.07 155.902 204.65C155.902 204.211 155.743 203.866 155.426 203.614C155.109 203.362 154.633 203.236 153.998 203.236H151.898V206.12ZM151.912 210.558H154.362C154.997 210.558 155.487 210.423 155.832 210.152C156.187 209.872 156.364 209.494 156.364 209.018C156.364 208.561 156.182 208.197 155.818 207.926C155.463 207.655 154.945 207.52 154.264 207.52H151.912V210.558Z" fill="white"/>
<path d="M161.314 201.388V212H159.76V201.388H161.314Z" fill="white"/>
<path d="M163.047 208.514C163.047 207.842 163.215 207.226 163.551 206.666C163.906 206.087 164.354 205.653 164.895 205.364C165.455 205.056 166.071 204.902 166.743 204.902C167.397 204.902 168.003 205.056 168.563 205.364C169.123 205.672 169.571 206.101 169.907 206.652C170.234 207.221 170.397 207.833 170.397 208.486C170.416 209.485 170.057 210.348 169.319 211.076C168.591 211.795 167.728 212.145 166.729 212.126C166.085 212.126 165.474 211.967 164.895 211.65C164.354 211.361 163.906 210.927 163.551 210.348C163.215 209.788 163.047 209.177 163.047 208.514ZM164.643 208.486C164.643 209.093 164.839 209.615 165.231 210.054C165.623 210.493 166.127 210.712 166.743 210.712C167.35 210.712 167.849 210.497 168.241 210.068C168.624 209.639 168.815 209.121 168.815 208.514C168.815 207.889 168.619 207.366 168.227 206.946C167.854 206.517 167.355 206.302 166.729 206.302C166.113 206.302 165.609 206.512 165.217 206.932C164.835 207.343 164.643 207.861 164.643 208.486Z" fill="white"/>
<path d="M175.052 212.056C174.053 212.056 173.241 211.697 172.616 210.978C171.981 210.269 171.664 209.443 171.664 208.5C171.664 207.613 171.967 206.806 172.574 206.078C172.863 205.723 173.227 205.443 173.666 205.238C174.114 205.033 174.59 204.93 175.094 204.93C175.486 204.93 175.897 205.023 176.326 205.21C176.793 205.425 177.143 205.723 177.376 206.106V205.042H178.888V211.958C178.888 212.677 178.72 213.307 178.384 213.848C178.029 214.408 177.581 214.814 177.04 215.066C176.48 215.346 175.841 215.486 175.122 215.486C173.983 215.486 173.069 215.141 172.378 214.45C172.023 214.095 171.795 213.657 171.692 213.134L173.148 212.714C173.232 213.097 173.456 213.419 173.82 213.68C174.184 213.96 174.599 214.1 175.066 214.1C175.701 214.1 176.237 213.923 176.676 213.568C177.115 213.223 177.334 212.709 177.334 212.028V210.88C177.166 211.151 176.928 211.384 176.62 211.58C176.312 211.767 176.027 211.893 175.766 211.958C175.477 212.023 175.239 212.056 175.052 212.056ZM177.362 208.472C177.362 207.856 177.171 207.343 176.788 206.932C176.415 206.521 175.915 206.316 175.29 206.316C174.665 206.316 174.161 206.521 173.778 206.932C173.395 207.343 173.204 207.856 173.204 208.472C173.204 209.088 173.4 209.606 173.792 210.026C174.184 210.455 174.683 210.67 175.29 210.67C175.897 210.67 176.396 210.455 176.788 210.026C177.171 209.597 177.362 209.079 177.362 208.472Z" fill="white"/>
<path d="M184.01 212.056C183.012 212.056 182.2 211.697 181.574 210.978C180.94 210.269 180.622 209.443 180.622 208.5C180.622 207.613 180.926 206.806 181.532 206.078C181.822 205.723 182.186 205.443 182.624 205.238C183.072 205.033 183.548 204.93 184.052 204.93C184.444 204.93 184.855 205.023 185.284 205.21C185.751 205.425 186.101 205.723 186.334 206.106V205.042H187.846V211.958C187.846 212.677 187.678 213.307 187.342 213.848C186.988 214.408 186.54 214.814 185.998 215.066C185.438 215.346 184.799 215.486 184.08 215.486C182.942 215.486 182.027 215.141 181.336 214.45C180.982 214.095 180.753 213.657 180.65 213.134L182.106 212.714C182.19 213.097 182.414 213.419 182.778 213.68C183.142 213.96 183.558 214.1 184.024 214.1C184.659 214.1 185.196 213.923 185.634 213.568C186.073 213.223 186.292 212.709 186.292 212.028V210.88C186.124 211.151 185.886 211.384 185.578 211.58C185.27 211.767 184.986 211.893 184.724 211.958C184.435 212.023 184.197 212.056 184.01 212.056ZM186.32 208.472C186.32 207.856 186.129 207.343 185.746 206.932C185.373 206.521 184.874 206.316 184.248 206.316C183.623 206.316 183.119 206.521 182.736 206.932C182.354 207.343 182.162 207.856 182.162 208.472C182.162 209.088 182.358 209.606 182.75 210.026C183.142 210.455 183.642 210.67 184.248 210.67C184.855 210.67 185.354 210.455 185.746 210.026C186.129 209.597 186.32 209.079 186.32 208.472Z" fill="white"/>
<path d="M190.827 203.81C190.556 203.81 190.318 203.707 190.113 203.502C189.907 203.297 189.805 203.059 189.805 202.788C189.805 202.508 189.907 202.265 190.113 202.06C190.309 201.855 190.547 201.752 190.827 201.752C191.116 201.752 191.359 201.855 191.555 202.06C191.751 202.256 191.849 202.499 191.849 202.788C191.849 203.068 191.751 203.306 191.555 203.502C191.349 203.707 191.107 203.81 190.827 203.81ZM190.057 212V205.042H191.611V212H190.057Z" fill="white"/>
<path d="M198.524 212V208.108C198.524 207.567 198.393 207.142 198.132 206.834C197.87 206.526 197.488 206.372 196.984 206.372C196.489 206.372 196.097 206.531 195.808 206.848C195.518 207.165 195.374 207.59 195.374 208.122V212H193.82V205.042H195.332V205.98C195.537 205.709 195.784 205.485 196.074 205.308C196.363 205.14 196.61 205.028 196.816 204.972C197.049 204.925 197.264 204.902 197.46 204.902C198.318 204.902 198.967 205.163 199.406 205.686C199.844 206.19 200.064 206.867 200.064 207.716V212H198.524Z" fill="white"/>
<path d="M205.116 212.056C204.117 212.056 203.305 211.697 202.68 210.978C202.045 210.269 201.728 209.443 201.728 208.5C201.728 207.613 202.031 206.806 202.638 206.078C202.927 205.723 203.291 205.443 203.73 205.238C204.178 205.033 204.654 204.93 205.158 204.93C205.55 204.93 205.96 205.023 206.39 205.21C206.856 205.425 207.206 205.723 207.44 206.106V205.042H208.952V211.958C208.952 212.677 208.784 213.307 208.448 213.848C208.093 214.408 207.645 214.814 207.104 215.066C206.544 215.346 205.904 215.486 205.186 215.486C204.047 215.486 203.132 215.141 202.442 214.45C202.087 214.095 201.858 213.657 201.756 213.134L203.212 212.714C203.296 213.097 203.52 213.419 203.884 213.68C204.248 213.96 204.663 214.1 205.13 214.1C205.764 214.1 206.301 213.923 206.74 213.568C207.178 213.223 207.398 212.709 207.398 212.028V210.88C207.23 211.151 206.992 211.384 206.684 211.58C206.376 211.767 206.091 211.893 205.83 211.958C205.54 212.023 205.302 212.056 205.116 212.056ZM207.426 208.472C207.426 207.856 207.234 207.343 206.852 206.932C206.478 206.521 205.979 206.316 205.354 206.316C204.728 206.316 204.224 206.521 203.842 206.932C203.459 207.343 203.268 207.856 203.268 208.472C203.268 209.088 203.464 209.606 203.856 210.026C204.248 210.455 204.747 210.67 205.354 210.67C205.96 210.67 206.46 210.455 206.852 210.026C207.234 209.597 207.426 209.079 207.426 208.472Z" fill="white"/>
</svg>
